<svg xmlns="http://www.w3.org/2000/svg" width="64" height="64" viewBox="0 0 64 64">
  <path fill="white" d="M60.6 35.8c-.3-1.4-.5-2.8-.5-4.2s.2-2.8.5-4.2l-6.8-2.1c-.6-1.9-1.5-3.6-2.6-5.2l4.1-5.7-6-6-5.7 4.1c-1.6-1.1-3.3-2-5.2-2.6L36.3 3.4C34.9 3.1 33.5 2.9 32 2.9s-2.9.2-4.3.5l-2.1 6.8c-1.9.6-3.6 1.5-5.2 2.6l-5.7-4.1-6 6 4.1 5.7c-1.1 1.6-2 3.3-2.6 5.2l-6.8 2.1C3.1 27.2 2.9 28.6 2.9 30s.2 2.9.5 4.3l6.8 2.1c.6 1.9 1.5 3.6 2.6 5.2l-4.1 5.7 6 6 5.7-4.1c1.6 1.1 3.3 2 5.2 2.6l2.1 6.8c1.4.3 2.8.5 4.2.5s2.8-.2 4.2-.5l2.1-6.8c1.9-.6 3.6-1.5 5.2-2.6l5.7 4.1 6-6-4.1-5.7c1.1-1.6 2-3.3 2.6-5.2l6.8-2.1zM32 42c-5.5 0-10-4.5-10-10s4.5-10 10-10 10 4.5 10 10-4.5 10-10 10z"/>
</svg>
